<svg width="15" height="15" viewBox="0 0 15 15" fill="none" xmlns="http://www.w3.org/2000/svg">
<path d="M10.625 1.25H4.375C2.64911 1.25 1.25 2.64911 1.25 4.375V10.625C1.25 12.3509 2.64911 13.75 4.375 13.75H10.625C12.3509 13.75 13.75 12.3509 13.75 10.625V4.375C13.75 2.64911 12.3509 1.25 10.625 1.25Z" stroke="#9750AF" stroke-width="1.25" stroke-linecap="round" stroke-linejoin="round"/>
<path d="M10 7.10619C10.0771 7.62635 9.98829 8.15758 9.7461 8.62433C9.50391 9.09108 9.12072 9.46958 8.65102 9.70599C8.18132 9.9424 7.64903 10.0247 7.12987 9.94115C6.6107 9.85761 6.1311 9.6125 5.75927 9.24067C5.38745 8.86884 5.14233 8.38924 5.05879 7.87008C4.97525 7.35091 5.05754 6.81863 5.29395 6.34893C5.53037 5.87923 5.90887 5.49603 6.37562 5.25385C6.84236 5.01166 7.3736 4.92281 7.89375 4.99994C8.42433 5.07862 8.91553 5.32586 9.29481 5.70514C9.67409 6.08441 9.92132 6.57562 10 7.10619Z" stroke="#9750AF" stroke-width="1.25" stroke-linecap="round" stroke-linejoin="round"/>
<path d="M10.9375 4.0625H10.9438" stroke="#9750AF" stroke-width="1.25" stroke-linecap="round" stroke-linejoin="round"/>
</svg>
