<svg width="14" height="14" viewBox="0 0 14 14" fill="none" xmlns="http://www.w3.org/2000/svg">
<path d="M2.33331 8.16667C2.22292 8.16704 2.11469 8.13609 2.0212 8.0774C1.9277 8.01872 1.85278 7.93471 1.80513 7.83513C1.75748 7.73556 1.73906 7.62451 1.75202 7.51488C1.76497 7.40526 1.80876 7.30156 1.87831 7.21583L7.65331 1.26583C7.69663 1.21583 7.75566 1.18204 7.82071 1.17001C7.88577 1.15798 7.95298 1.16842 8.01132 1.19963C8.06965 1.23083 8.11565 1.28094 8.14175 1.34173C8.16786 1.40252 8.17252 1.47038 8.15497 1.53417L7.03498 5.04583C7.00195 5.13422 6.99086 5.2293 7.00265 5.32292C7.01445 5.41654 7.04878 5.5059 7.10269 5.58333C7.15661 5.66077 7.22851 5.72397 7.31222 5.76751C7.39593 5.81105 7.48895 5.83364 7.58331 5.83333H11.6666C11.777 5.83296 11.8853 5.86391 11.9788 5.9226C12.0722 5.98128 12.1472 6.06529 12.1948 6.16487C12.2425 6.26444 12.2609 6.37549 12.2479 6.48512C12.235 6.59474 12.1912 6.69844 12.1216 6.78417L6.34664 12.7342C6.30332 12.7842 6.24429 12.818 6.17924 12.83C6.11418 12.842 6.04697 12.8316 5.98863 12.8004C5.9303 12.7692 5.8843 12.7191 5.8582 12.6583C5.83209 12.5975 5.82743 12.5296 5.84498 12.4658L6.96497 8.95417C6.998 8.86578 7.00909 8.7707 6.9973 8.67708C6.9855 8.58346 6.95117 8.4941 6.89726 8.41667C6.84334 8.33923 6.77144 8.27603 6.68773 8.23249C6.60402 8.18895 6.511 8.16636 6.41664 8.16667H2.33331Z" stroke="white" stroke-width="1.16667" stroke-linecap="round" stroke-linejoin="round"/>
</svg>
