<svg width="22" height="22" viewBox="0 0 22 22" fill="none" xmlns="http://www.w3.org/2000/svg">
<path d="M3.66668 12.8334C3.49321 12.834 3.32314 12.7854 3.17622 12.6932C3.0293 12.601 2.91156 12.4689 2.83668 12.3125C2.76181 12.156 2.73287 11.9815 2.75322 11.8092C2.77358 11.6369 2.8424 11.474 2.95168 11.3393L12.0267 1.98928C12.0948 1.9107 12.1875 1.8576 12.2897 1.8387C12.392 1.81979 12.4976 1.8362 12.5893 1.88524C12.6809 1.93427 12.7532 2.01301 12.7942 2.10854C12.8353 2.20407 12.8426 2.3107 12.815 2.41094L11.055 7.92928C11.0031 8.06817 10.9857 8.21759 11.0042 8.3647C11.0228 8.51181 11.0767 8.65223 11.1614 8.77392C11.2462 8.8956 11.3591 8.99491 11.4907 9.06334C11.6222 9.13176 11.7684 9.16726 11.9167 9.16678H18.3333C18.5068 9.16618 18.6769 9.21482 18.8238 9.30705C18.9707 9.39927 19.0885 9.53128 19.1633 9.68776C19.2382 9.84423 19.2672 10.0187 19.2468 10.191C19.2264 10.3633 19.1576 10.5262 19.0483 10.6609L9.97335 20.0109C9.90527 20.0895 9.81251 20.1426 9.71028 20.1615C9.60805 20.1804 9.50243 20.164 9.41076 20.115C9.31909 20.0659 9.24681 19.9872 9.20579 19.8917C9.16477 19.7961 9.15744 19.6895 9.18501 19.5893L10.945 14.0709C10.9969 13.932 11.0143 13.7826 10.9958 13.6355C10.9773 13.4884 10.9233 13.348 10.8386 13.2263C10.7539 13.1046 10.6409 13.0053 10.5093 12.9369C10.3778 12.8685 10.2316 12.833 10.0833 12.8334H3.66668Z" fill="white" stroke="white" stroke-width="1.83333" stroke-linecap="round" stroke-linejoin="round"/>
</svg>
