<svg width="14" height="14" viewBox="0 0 14 14" fill="none" xmlns="http://www.w3.org/2000/svg">
<path d="M2.33331 8.16668C2.22292 8.16706 2.11469 8.1361 2.0212 8.07742C1.9277 8.01873 1.85278 7.93472 1.80513 7.83515C1.75748 7.73557 1.73906 7.62452 1.75202 7.5149C1.76497 7.40527 1.80876 7.30157 1.87831 7.21585L7.65331 1.26585C7.69663 1.21584 7.75566 1.18205 7.82071 1.17002C7.88577 1.15799 7.95298 1.16844 8.01132 1.19964C8.06965 1.23084 8.11565 1.28095 8.14175 1.34174C8.16786 1.40253 8.17252 1.47039 8.15497 1.53418L7.03498 5.04585C7.00195 5.13424 6.99086 5.22932 7.00265 5.32293C7.01445 5.41655 7.04878 5.50591 7.10269 5.58335C7.15661 5.66078 7.22851 5.72398 7.31222 5.76752C7.39593 5.81107 7.48895 5.83365 7.58331 5.83335H11.6666C11.777 5.83297 11.8853 5.86392 11.9788 5.92261C12.0722 5.9813 12.1472 6.06531 12.1948 6.16488C12.2425 6.26445 12.2609 6.3755 12.2479 6.48513C12.235 6.59475 12.1912 6.69845 12.1216 6.78418L6.34664 12.7342C6.30332 12.7842 6.24429 12.818 6.17924 12.83C6.11418 12.842 6.04697 12.8316 5.98863 12.8004C5.9303 12.7692 5.8843 12.7191 5.8582 12.6583C5.83209 12.5975 5.82743 12.5296 5.84498 12.4658L6.96497 8.95418C6.998 8.86579 7.00909 8.77071 6.9973 8.67709C6.9855 8.58348 6.95117 8.49412 6.89726 8.41668C6.84334 8.33925 6.77144 8.27605 6.68773 8.2325C6.60402 8.18896 6.511 8.16637 6.41664 8.16668H2.33331Z" stroke="#050704" stroke-width="1.16667" stroke-linecap="round" stroke-linejoin="round"/>
</svg>
