<svg width="12" height="12" viewBox="0 0 12 12" fill="none" xmlns="http://www.w3.org/2000/svg">
<path d="M5.76248 1.14745C5.7844 1.10318 5.81824 1.06591 5.86021 1.03986C5.90218 1.01381 5.95059 1 5.99998 1C6.04938 1 6.09779 1.01381 6.13976 1.03986C6.18172 1.06591 6.21557 1.10318 6.23748 1.14745L7.39248 3.48695C7.46857 3.64093 7.58089 3.77415 7.7198 3.87517C7.8587 3.9762 8.02005 4.042 8.18998 4.06695L10.773 4.44495C10.8219 4.45204 10.8679 4.47268 10.9057 4.50455C10.9435 4.53641 10.9717 4.57822 10.987 4.62525C11.0023 4.67228 11.0041 4.72265 10.9923 4.77066C10.9804 4.81868 10.9554 4.86242 10.92 4.89695L9.05198 6.71595C8.92879 6.836 8.83662 6.98419 8.7834 7.14776C8.73018 7.31133 8.71751 7.48539 8.74648 7.65495L9.18748 10.2249C9.19612 10.2739 9.19084 10.3242 9.17223 10.3703C9.15363 10.4163 9.12245 10.4563 9.08226 10.4854C9.04206 10.5146 8.99447 10.5319 8.94492 10.5354C8.89536 10.5388 8.84583 10.5283 8.80198 10.5049L6.49298 9.29095C6.34084 9.21106 6.17157 9.16932 5.99973 9.16932C5.82789 9.16932 5.65863 9.21106 5.50648 9.29095L3.19798 10.5049C3.15415 10.5282 3.10468 10.5386 3.05521 10.5351C3.00574 10.5316 2.95824 10.5142 2.91813 10.4851C2.87802 10.4559 2.8469 10.416 2.82831 10.3701C2.80972 10.3241 2.80441 10.2738 2.81298 10.2249L3.25348 7.65545C3.28258 7.48581 3.26998 7.31165 3.21675 7.14797C3.16353 6.98429 3.07129 6.83602 2.94798 6.71595L1.07998 4.89745C1.04428 4.86296 1.01898 4.81914 1.00697 4.77098C0.99495 4.72282 0.996703 4.67226 1.01202 4.62504C1.02734 4.57783 1.05562 4.53587 1.09362 4.50394C1.13163 4.47201 1.17784 4.4514 1.22698 4.44445L3.80948 4.06695C3.97961 4.0422 4.14118 3.97648 4.28028 3.87544C4.41937 3.77441 4.53184 3.64108 4.60798 3.48695L5.76248 1.14745Z" fill="#9750AF" stroke="#9750AF" stroke-linecap="round" stroke-linejoin="round"/>
</svg>
